<svg version="1.1" xmlns="http://www.w3.org/2000/svg">
	<defs>
        <symbol id="close" viewBox="0 0 55.2 55.1">
            <polygon points="33.2 27.6 55.1 49.5 49.5 55.1 27.6 33.2 5.7 55.1 0 49.5 21.9 27.6 0 5.7 5.7 0 27.6 21.9 49.5 0 55.1 5.7 33.2 27.6"/>
        </symbol>
        <symbol id="maze" viewBox="0 0 64 64.4">
            <path d="M63 0H32.2c-0.6 0-1 0.4-1 1s0.4 1 1 1h11.5v5.2c0 0.6 0.4 1 1 1H50v5.2c0 0.6 0.4 1 1 1h5.2v5.4c0 0.6 0.4 1 1 1s1-0.4 1-1v-6.4c0-0.6-0.4-1-1-1H52V8.2h5.2c0.6 0 1-0.4 1-1s-0.4-1-1-1H45.7V2H62v23H52v-5.2c0-0.6-0.4-1-1-1s-1 0.4-1 1V25h-5.2c-0.6 0-1 0.4-1 1v11.5h-4.2v-5.2c0-0.6-0.4-1-1-1h-5.2V26c0-0.6-0.4-1-1-1s-1 0.4-1 1v5.2H20.8V26c0-0.6-0.4-1-1-1s-1 0.4-1 1v6.2c0 0.6 0.4 1 1 1H25v5.2c0 0.6 0.4 1 1 1s1-0.4 1-1v-5.2h10.5v5.2 11.5h-5.2c-0.6 0-1 0.4-1 1s0.4 1 1 1h6.2c0.6 0 1-0.4 1-1V39.4h5.2c0.6 0 1-0.4 1-1V27H62v4.2h-4.8c-0.6 0-1 0.4-1 1 0 0.6 0.4 1 1 1H62v16.7H45.7v-4.2h11.5c0.6 0 1-0.4 1-1v-6.2c0-0.6-0.4-1-1-1s-1 0.4-1 1v5.2H52V32.2c0-0.6-0.4-1-1-1s-1 0.4-1 1v11.5h-5.2c-0.6 0-1 0.4-1 1v12.5c0 0.6 0.4 1 1 1s1-0.4 1-1v-5.2H62v10.5H52v-4.2h5.2c0.6 0 1-0.4 1-1s-0.4-1-1-1H51c-0.6 0-1 0.4-1 1v5.2H39.5v-5.2c0-0.6-0.4-1-1-1H27V45.7h5.2c0.6 0 1-0.4 1-1v-6.2c0-0.6-0.4-1-1-1s-1 0.4-1 1v5.2H20.8v-5.2c0-0.6-0.4-1-1-1h-5.2V20.7H25V26c0 0.6 0.4 1 1 1s1-0.4 1-1v-6.2c0-0.6-0.4-1-1-1H13.5c-0.6 0-1 0.4-1 1v11.5H7.3c-0.6 0-1 0.4-1 1 0 0.6 0.4 1 1 1h5.2v5.2c0 0.6 0.4 1 1 1h5.2v5.2c0 0.6 0.4 1 1 1H25v10.5h-5.2c-0.6 0-1 0.4-1 1s0.4 1 1 1h17.7v5.2c0 0.6 0.4 1 1 1H63c0.6 0 1-0.4 1-1V1C64 0.4 63.6 0 63 0zM32.2 62.4H14.5V51.9h5.2c0.6 0 1-0.4 1-1s-0.4-1-1-1h-5.2v-5.2c0-0.6-0.4-1-1-1H8.3v-5.2c0-0.6-0.4-1-1-1s-1 0.4-1 1v6.2c0 0.6 0.4 1 1 1h5.2v5.2 11.5H2V51.9h4.3v5.2c0 0.6 0.4 1 1 1s1-0.4 1-1v-6.2c0-0.6-0.4-1-1-1H2V27h5.3c0.6 0 1-0.4 1-1V14.5h5.2c0.6 0 1-0.4 1-1s-0.4-1-1-1H7.3c-0.6 0-1 0.4-1 1V25H2V8.2h11.5c0.6 0 1-0.4 1-1s-0.4-1-1-1H2V2h23v5.2c0 0.6 0.4 1 1 1s1-0.4 1-1V1c0-0.6-0.4-1-1-1H1C0.4 0 0 0.4 0 1v62.4c0 0.6 0.4 1 1 1h31.2c0.6 0 1-0.4 1-1S32.8 62.4 32.2 62.4zM20.8 7.2c0-0.6-0.4-1-1-1s-1 0.4-1 1v6.2c0 0.6 0.4 1 1 1h11.5v5.2c0 0.6 0.4 1 1 1h5.2V26c0 0.6 0.4 1 1 1s1-0.4 1-1v-5.2h5.2c0.6 0 1-0.4 1-1s-0.4-1-1-1H33.2v-5.2V8.2h4.2v5.2c0 0.6 0.4 1 1 1h6.2c0.6 0 1-0.4 1-1s-0.4-1-1-1h-5.2V7.2c0-0.6-0.4-1-1-1h-6.2c-0.6 0-1 0.4-1 1v5.2H20.8V7.2z"/>
        </symbol>
        <symbol id="cookie" viewBox="0 0 99 97.7">
            <g><path d="M49.5 97.7C22.2 97.7 0 75.5 0 48.2 0 29.3 11.1 11.7 28.2 3.5c1.2-0.6 2.6-0.6 3.8 0 1.2 0.6 2.1 1.7 2.3 3.1 0.4 2.1 2.1 7.1 8.6 7.1 4.5 0 6.7-2.5 7.7-4.5 0.9-1.8 3-2.8 5-2.3 2 0.5 3.4 2.3 3.3 4.4 -0.1 3.3 0.8 6.3 2.5 8 2.2 2.2 5.9 2.4 11 0.6 1.8-0.7 3.9 0 5 1.6 1.1 1.6 1.1 3.7-0.1 5.3 -1.9 2.4-2.1 6-0.5 9.3 1.9 3.9 5.8 6.3 10.3 6.3 2 0 3.7-0.4 5.3-1.3 1.3-0.7 2.9-0.7 4.2 0 1.3 0.7 2.1 2 2.3 3.5l0 0.5c0.1 1 0.1 2 0.1 3C99 75.5 76.8 97.7 49.5 97.7zM27.7 13.8c-11.7 7.4-19 20.5-19 34.4C8.7 70.7 27 89 49.5 89c21.6 0 39.3-16.9 40.7-38.1 -1 0.1-2 0.2-3.1 0.2 -7.8 0-14.8-4.3-18.2-11.2 -1.6-3.3-2.2-6.7-1.9-10 -0.2 0-0.5 0-0.7 0h0c-4.5 0-8.3-1.5-11.2-4.4 -1.4-1.4-2.5-3.2-3.3-5.1 -2.6 1.5-5.6 2.2-8.9 2.2C36.2 22.5 30.7 19.2 27.7 13.8zM95.4 8.1c0 2-1.6 3.6-3.6 3.6 -2 0-3.6-1.6-3.6-3.6 0-2 1.6-3.6 3.6-3.6C93.8 4.5 95.4 6.1 95.4 8.1z"/><circle cx="28.2" cy="37.5" r="6.2"/><circle cx="32.6" cy="61.8" r="6.2"/><circle cx="55.3" cy="69.5" r="6.2"/><circle cx="52.6" cy="44.8" r="6.2"/><path d="M77.8 5.7c0 3.1-2.6 5.7-5.7 5.7 -3.1 0-5.7-2.6-5.7-5.7 0-3.2 2.6-5.7 5.7-5.7C75.2 0 77.8 2.6 77.8 5.7z"/><circle cx="92.5" cy="27.4" r="4"/></g>
        </symbol>
        <symbol id="ampersand" viewBox="0 0 9.15 8.84">
            <path d="M8.3 0.2c0.27 0.13 0.47 0.32 0.63 0.56s0.23 0.53 0.23 0.86c0 0.38-0.1 0.72-0.31 1S8.36 3.13 8.02 3.3C7.73 3.44 7.14 3.65 6.23 3.93c0.45 0.19 0.78 0.46 0.99 0.81S7.55 5.5 7.55 5.96c0 0.5-0.15 0.96-0.44 1.4S6.38 8.16 5.83 8.43s-1.2 0.4-1.95 0.4c-0.7 0-1.34-0.12-1.94-0.37S0.88 7.88 0.53 7.42 0 6.45 0 5.85c0-0.53 0.13-0.97 0.39-1.34s0.56-0.64 0.89-0.83 0.64-0.32 0.93-0.4C1.82 3.12 1.53 2.9 1.32 2.62S1.01 2.05 1.01 1.74c0-0.27 0.08-0.51 0.23-0.74s0.39-0.41 0.69-0.55 0.67-0.21 1.1-0.21c0.54 0 0.95 0.12 1.25 0.36C4.43 0.72 4.54 0.86 4.62 1s0.11 0.29 0.11 0.42c0 0.19-0.07 0.35-0.21 0.46S4.23 2.07 4.05 2.07c-0.17 0-0.32-0.05-0.44-0.16S3.43 1.65 3.43 1.46c0-0.17 0.06-0.32 0.18-0.45s0.27-0.2 0.46-0.21c-0.04-0.11-0.14-0.2-0.3-0.27S3.39 0.42 3.15 0.42c-0.42 0-0.75 0.13-1.01 0.38S1.76 1.4 1.76 1.85c0 0.54 0.2 0.99 0.61 1.37C2.65 3.17 2.9 3.15 3.12 3.15c0.15 0 0.27 0.02 0.35 0.07S3.6 3.33 3.6 3.42c0 0.07-0.03 0.13-0.09 0.17S3.37 3.65 3.26 3.65c-0.12 0-0.24-0.02-0.38-0.06S2.64 3.5 2.55 3.46 2.41 3.39 2.38 3.39C1.35 3.7 0.83 4.35 0.83 5.36c0 0.54 0.14 1 0.42 1.39S1.91 7.43 2.4 7.64s1.04 0.31 1.64 0.31c0.57 0 1.1-0.09 1.58-0.27s0.86-0.43 1.15-0.77S7.2 6.19 7.2 5.75c0-0.31-0.08-0.63-0.25-0.96S6.45 4.2 5.99 4.01C5.28 4.23 4.82 4.38 4.61 4.46 4.27 4.59 4.01 4.74 3.83 4.9s-0.28 0.37-0.28 0.6c0 0.2 0.06 0.37 0.17 0.51s0.26 0.26 0.43 0.33 0.34 0.11 0.5 0.11c0.14 0 0.29-0.02 0.45-0.07s0.25-0.11 0.27-0.19c-0.15-0.03-0.28-0.09-0.4-0.19S4.81 5.78 4.81 5.6c0-0.19 0.06-0.34 0.19-0.45s0.28-0.17 0.47-0.17c0.19 0 0.35 0.06 0.46 0.18s0.18 0.28 0.18 0.47c0 0.21-0.07 0.4-0.22 0.56S5.56 6.45 5.34 6.53 4.9 6.65 4.68 6.65C4.43 6.65 4.2 6.6 3.97 6.5S3.55 6.24 3.41 6.03 3.19 5.56 3.19 5.24c0-0.41 0.14-0.75 0.41-1.04s0.69-0.52 1.25-0.71C5 3.44 5.3 3.35 5.75 3.23S6.58 2.98 6.9 2.88s0.61-0.21 0.87-0.33C8.15 2.37 8.42 2.19 8.58 2s0.23-0.39 0.23-0.61c0-0.22-0.06-0.43-0.19-0.61S8.31 0.45 8.1 0.34 7.66 0.18 7.41 0.18c-0.2 0-0.32 0.04-0.36 0.11C7.16 0.34 7.24 0.42 7.3 0.52s0.09 0.21 0.09 0.32c0 0.16-0.07 0.3-0.2 0.42S6.9 1.43 6.71 1.43c-0.17 0-0.32-0.05-0.45-0.16S6.08 1.02 6.08 0.83c0-0.2 0.07-0.36 0.2-0.48s0.3-0.21 0.5-0.27S7.19 0 7.4 0C7.73 0 8.03 0.07 8.3 0.2z"/>
        </symbol>
        <symbol id="search" viewBox="0 0 120 120">
            <path d="M83.1,50.8a31.1,31.1,0,0,0-9.5-22.8,31.1,31.1,0,0,0-22.8-9.5,31.1,31.1,0,0,0-22.8,9.5,31.1,31.1,0,0,0-9.5,22.8,31.1,31.1,0,0,0,9.5,22.8,31.1,31.1,0,0,0,22.8,9.5,31.1,31.1,0,0,0,22.8-9.5A31.1,31.1,0,0,0,83.1,50.8Zm36.9,60a9.4,9.4,0,0,1-9.2,9.2,8.6,8.6,0,0,1-6.5-2.7L79.5,92.6a49.4,49.4,0,0,1-28.8,8.9,49.9,49.9,0,0,1-19.7-4,49.7,49.7,0,0,1-27-27A50.6,50.6,0,0,1,4,31,49.7,49.7,0,0,1,31,4,50.6,50.6,0,0,1,70.5,4a49.7,49.7,0,0,1,27,27,49.9,49.9,0,0,1,4,19.7,49.4,49.4,0,0,1-8.9,28.8l24.7,24.7A8.8,8.8,0,0,1,120,110.8Z"/>
        </symbol>
        <symbol id="arrow-down" viewBox="0 0 66.7 42.1">
            <path d="M66.7 8.7c0 1.5-0.5 2.8-1.6 3.8L37.3 40.4c-1.1 1.1-2.4 1.6-3.9 1.6 -1.5 0-2.8-0.5-3.9-1.6L1.6 12.5C0.6 11.5 0 10.2 0 8.7c0-1.5 0.5-2.8 1.6-3.9l3.2-3.2C5.9 0.5 7.2 0 8.7 0c1.5 0 2.8 0.5 3.9 1.6l20.8 20.8L54.2 1.6C55.3 0.5 56.5 0 58 0c1.5 0 2.8 0.5 3.9 1.6l3.2 3.2C66.2 5.9 66.7 7.2 66.7 8.7z"/>
        </symbol>
	</defs>
</svg>
